<svg xmlns="http://www.w3.org/2000/svg" data-name="Layer 1" viewBox="0 0 512 512"><defs><clipPath id="a"><polygon fill="none" points="88.8 230.65 88.33 61.62 235.42 -23.3 235.9 145.72 88.8 230.65"/></clipPath></defs><path fill="#a9a9d3" d="M406.48,354.29C344,318.21,243,318.2,180.92,354.28s-61.75,94.59.74,130.67,163.46,36.08,225.57,0,61.75-94.57-.74-130.64"/><path fill="#a9a9d3" d="M134.56 374.17v45.75l27.55-27.16-25.83-19.44A1.07 1.07 0 0 0 134.56 374.17zM453.53 374.17v45.75L426 392.76l25.83-19.44A1.07 1.07 0 0 1 453.53 374.17z"/><path fill="#9797bf" d="M406.48,314.7c-62.49-36.08-163.48-36.09-225.57,0s-61.75,94.59.74,130.67,163.46,36.08,225.57,0,61.75-94.57-.74-130.64"/><path fill="#9797bf" d="M134.56 334.59v45.75l27.55-27.16-25.83-19.44A1.07 1.07 0 0 0 134.56 334.59zM453.53 334.59v45.75L426 353.17l25.83-19.44A1.07 1.07 0 0 1 453.53 334.59z"/><path fill="#767ea8" d="M134.56 293.53v45.75l27.55-27.16-25.83-19.44A1.07 1.07 0 0 0 134.56 293.53zM453.53 293.53v45.75L426 312.12l25.83-19.44A1.07 1.07 0 0 1 453.53 293.53z"/><path fill="#767ea8" d="M406.48,273.64c-62.49-36.08-163.48-36.09-225.57,0s-61.75,94.59.74,130.67,163.46,36.08,225.57,0,61.75-94.57-.74-130.64"/><path fill="#657caa" d="M406.47,230.65c-62.49-36.08-163.46-36.08-225.54,0s-61.77,94.58.72,130.66,163.48,36.09,225.59,0,61.75-94.57-.76-130.66"/><polyline fill="#fffffd" points="332.37 330.34 257.63 319.51 220.12 341.31 332.37 330.34"/><polyline fill="#fffffd" points="372.07 253.01 317.93 284.47 342.7 322.27 372.07 253.01"/><polyline fill="#fffffd" points="313.66 286.95 267.48 313.79 338.16 324.48 313.66 286.95"/><polyline fill="#fffffd" points="368.13 250.73 248.65 267.97 313.99 282.19 368.13 250.73"/><polyline fill="#fffffd" points="309.72 284.67 244.72 270.53 263.53 311.51 309.72 284.67"/><polyline fill="#fffffd" points="234.64 273.91 216.05 338.97 253.56 317.17 234.64 273.91"/><polygon fill="#767ea8" points="232.74 25.46 213.11 13.47 208.46 28 232.74 25.46"/><polygon fill="#767ea8" points="107.39 191.75 127.21 203.4 131.79 188.84 107.39 191.75"/><g clip-path="url(#a)"><path fill="#767ea8" d="M161.87,19.16c-40.62,23.45-73.44,80.3-73.31,127s33.17,65.5,73.78,42,73.44-80.3,73.31-127-33.17-65.5-73.79-42.05"/></g><path fill="#657caa" d="M175.72,183.26l-37.26-38.5,37.16,4.14.1,34.36m40.12-83.17-36.9,81.31-.1-34.36,37-47m-40.16,39.74-35.55-3.32,35.43-38.95.12,42.27m3.14-1.81-.12-42.27,35.43-2L178.81,138m-38.88-5.19L175.4,44.05l.14,49.57-35.61,39.2m74.46-43-35.72,2-.14-49.57L214.4,89.83M176.89,28.24c-40.63,23.46-73.44,80.31-73.31,127s33.15,65.51,73.79,42,73.44-80.31,73.31-127-33.17-65.5-73.79-42"/><polyline fill="#fffffd" points="215.83 100.09 178.84 147.04 178.93 181.4 215.83 100.09"/><polyline fill="#fffffd" points="178.54 42.24 178.68 91.81 214.4 89.83 178.54 42.24"/><polyline fill="#fffffd" points="178.69 95.74 178.81 138.01 214.12 93.78 178.69 95.74"/><polyline fill="#fffffd" points="175.4 44.05 139.93 132.82 175.54 93.62 175.4 44.05"/><polyline fill="#fffffd" points="175.56 97.56 140.13 136.5 175.68 139.82 175.56 97.56"/><polyline fill="#fffffd" points="138.46 144.76 175.72 183.26 175.62 148.9 138.46 144.76"/></svg>